<mxfile host="app.diagrams.net" agent="Mozilla/5.0 (Windows NT 10.0; Win64; x64) AppleWebKit/537.36 (KHTML, like Gecko) Chrome/130.0.0.0 Safari/537.36 Edg/130.0.0.0" version="24.8.0">
  <diagram name="Page-1" id="FcjyuYtNplMckJsM3TGu">
    <mxGraphModel dx="1293" dy="685" grid="1" gridSize="10" guides="1" tooltips="1" connect="1" arrows="1" fold="1" page="1" pageScale="1" pageWidth="1400" pageHeight="850" math="0" shadow="0">
      <root>
        <mxCell id="0" />
        <mxCell id="1" parent="0" />
        <mxCell id="U8pGkThp6kLcEfoQ19Tg-10" style="edgeStyle=orthogonalEdgeStyle;rounded=0;orthogonalLoop=1;jettySize=auto;html=1;" edge="1" parent="1" source="U8pGkThp6kLcEfoQ19Tg-2" target="U8pGkThp6kLcEfoQ19Tg-5">
          <mxGeometry relative="1" as="geometry" />
        </mxCell>
        <mxCell id="U8pGkThp6kLcEfoQ19Tg-44" value="Request" style="edgeLabel;html=1;align=center;verticalAlign=middle;resizable=0;points=[];" vertex="1" connectable="0" parent="U8pGkThp6kLcEfoQ19Tg-10">
          <mxGeometry x="0.0035" y="-1" relative="1" as="geometry">
            <mxPoint as="offset" />
          </mxGeometry>
        </mxCell>
        <mxCell id="U8pGkThp6kLcEfoQ19Tg-2" value="" style="outlineConnect=0;dashed=0;verticalLabelPosition=bottom;verticalAlign=top;align=center;html=1;shape=mxgraph.aws3.management_console;fillColor=#D2D3D3;gradientColor=none;" vertex="1" parent="1">
          <mxGeometry x="63" y="130" width="63" height="63" as="geometry" />
        </mxCell>
        <mxCell id="U8pGkThp6kLcEfoQ19Tg-9" style="edgeStyle=orthogonalEdgeStyle;rounded=0;orthogonalLoop=1;jettySize=auto;html=1;" edge="1" parent="1" source="U8pGkThp6kLcEfoQ19Tg-12" target="U8pGkThp6kLcEfoQ19Tg-5">
          <mxGeometry relative="1" as="geometry" />
        </mxCell>
        <mxCell id="U8pGkThp6kLcEfoQ19Tg-4" value="" style="sketch=0;outlineConnect=0;fontColor=#232F3E;gradientColor=none;fillColor=#01A88D;strokeColor=none;dashed=0;verticalLabelPosition=bottom;verticalAlign=top;align=center;html=1;fontSize=12;fontStyle=0;aspect=fixed;shape=mxgraph.aws4.mainframe_modernization_developer;" vertex="1" parent="1">
          <mxGeometry x="63" y="358" width="78" height="78" as="geometry" />
        </mxCell>
        <mxCell id="U8pGkThp6kLcEfoQ19Tg-16" style="edgeStyle=orthogonalEdgeStyle;rounded=0;orthogonalLoop=1;jettySize=auto;html=1;" edge="1" parent="1" source="U8pGkThp6kLcEfoQ19Tg-5" target="U8pGkThp6kLcEfoQ19Tg-6">
          <mxGeometry relative="1" as="geometry" />
        </mxCell>
        <mxCell id="U8pGkThp6kLcEfoQ19Tg-5" value="Amazon API Gateway" style="sketch=0;outlineConnect=0;fontColor=#232F3E;gradientColor=none;strokeColor=#ffffff;fillColor=#232F3E;dashed=0;verticalLabelPosition=middle;verticalAlign=bottom;align=center;html=1;whiteSpace=wrap;fontSize=10;fontStyle=1;spacing=3;shape=mxgraph.aws4.productIcon;prIcon=mxgraph.aws4.api_gateway;" vertex="1" parent="1">
          <mxGeometry x="280" y="208" width="80" height="110" as="geometry" />
        </mxCell>
        <mxCell id="U8pGkThp6kLcEfoQ19Tg-17" value="" style="edgeStyle=orthogonalEdgeStyle;rounded=0;orthogonalLoop=1;jettySize=auto;html=1;" edge="1" parent="1" source="U8pGkThp6kLcEfoQ19Tg-6" target="U8pGkThp6kLcEfoQ19Tg-7">
          <mxGeometry relative="1" as="geometry" />
        </mxCell>
        <mxCell id="U8pGkThp6kLcEfoQ19Tg-6" value="" style="outlineConnect=0;dashed=0;verticalLabelPosition=bottom;verticalAlign=top;align=center;html=1;shape=mxgraph.aws3.lambda_function;fillColor=#F58534;gradientColor=none;" vertex="1" parent="1">
          <mxGeometry x="481" y="104" width="69" height="72" as="geometry" />
        </mxCell>
        <mxCell id="U8pGkThp6kLcEfoQ19Tg-30" value="" style="edgeStyle=orthogonalEdgeStyle;rounded=0;orthogonalLoop=1;jettySize=auto;html=1;" edge="1" parent="1" target="U8pGkThp6kLcEfoQ19Tg-27">
          <mxGeometry relative="1" as="geometry">
            <mxPoint x="625" y="311" as="sourcePoint" />
          </mxGeometry>
        </mxCell>
        <mxCell id="U8pGkThp6kLcEfoQ19Tg-15" value="VPC" style="points=[[0,0],[0.25,0],[0.5,0],[0.75,0],[1,0],[1,0.25],[1,0.5],[1,0.75],[1,1],[0.75,1],[0.5,1],[0.25,1],[0,1],[0,0.75],[0,0.5],[0,0.25]];outlineConnect=0;gradientColor=none;html=1;whiteSpace=wrap;fontSize=12;fontStyle=0;container=1;pointerEvents=0;collapsible=0;recursiveResize=0;shape=mxgraph.aws4.group;grIcon=mxgraph.aws4.group_vpc2;strokeColor=#8C4FFF;fillColor=none;verticalAlign=top;align=left;spacingLeft=30;fontColor=#AAB7B8;dashed=0;" vertex="1" parent="1">
          <mxGeometry x="370" y="77" width="550" height="243" as="geometry" />
        </mxCell>
        <mxCell id="U8pGkThp6kLcEfoQ19Tg-8" value="" style="sketch=0;points=[[0,0,0],[0.25,0,0],[0.5,0,0],[0.75,0,0],[1,0,0],[0,1,0],[0.25,1,0],[0.5,1,0],[0.75,1,0],[1,1,0],[0,0.25,0],[0,0.5,0],[0,0.75,0],[1,0.25,0],[1,0.5,0],[1,0.75,0]];outlineConnect=0;fontColor=#232F3E;fillColor=#ED7100;strokeColor=#ffffff;dashed=0;verticalLabelPosition=bottom;verticalAlign=top;align=center;html=1;fontSize=12;fontStyle=0;aspect=fixed;shape=mxgraph.aws4.resourceIcon;resIcon=mxgraph.aws4.nitro_enclaves;" vertex="1" parent="U8pGkThp6kLcEfoQ19Tg-15">
          <mxGeometry x="246" y="45" width="48" height="48" as="geometry" />
        </mxCell>
        <mxCell id="U8pGkThp6kLcEfoQ19Tg-18" value="Pipeline (1)" style="text;html=1;align=center;verticalAlign=middle;whiteSpace=wrap;rounded=0;" vertex="1" parent="U8pGkThp6kLcEfoQ19Tg-15">
          <mxGeometry x="240" y="13" width="60" height="30" as="geometry" />
        </mxCell>
        <mxCell id="U8pGkThp6kLcEfoQ19Tg-22" value="" style="outlineConnect=0;dashed=0;verticalLabelPosition=bottom;verticalAlign=top;align=center;html=1;shape=mxgraph.aws3.s3;fillColor=#E05243;gradientColor=none;" vertex="1" parent="U8pGkThp6kLcEfoQ19Tg-15">
          <mxGeometry x="403.5" y="140.5" width="76.5" height="93" as="geometry" />
        </mxCell>
        <mxCell id="U8pGkThp6kLcEfoQ19Tg-7" value="Amazon EC2" style="sketch=0;outlineConnect=0;fontColor=#232F3E;gradientColor=none;strokeColor=#ffffff;fillColor=#232F3E;dashed=0;verticalLabelPosition=middle;verticalAlign=bottom;align=center;html=1;whiteSpace=wrap;fontSize=10;fontStyle=1;spacing=3;shape=mxgraph.aws4.productIcon;prIcon=mxgraph.aws4.ec2;" vertex="1" parent="U8pGkThp6kLcEfoQ19Tg-15">
          <mxGeometry x="400" y="13" width="80" height="100" as="geometry" />
        </mxCell>
        <mxCell id="U8pGkThp6kLcEfoQ19Tg-21" value="Pipeline (2)" style="text;html=1;align=center;verticalAlign=middle;whiteSpace=wrap;rounded=0;" vertex="1" parent="U8pGkThp6kLcEfoQ19Tg-15">
          <mxGeometry x="246" y="154" width="60" height="30" as="geometry" />
        </mxCell>
        <mxCell id="U8pGkThp6kLcEfoQ19Tg-49" value="Lambda" style="text;html=1;align=center;verticalAlign=middle;whiteSpace=wrap;rounded=0;" vertex="1" parent="U8pGkThp6kLcEfoQ19Tg-15">
          <mxGeometry x="120" y="3" width="60" height="30" as="geometry" />
        </mxCell>
        <mxCell id="U8pGkThp6kLcEfoQ19Tg-50" value="Nitro" style="text;html=1;align=center;verticalAlign=middle;whiteSpace=wrap;rounded=0;" vertex="1" parent="U8pGkThp6kLcEfoQ19Tg-15">
          <mxGeometry x="240" y="93" width="60" height="30" as="geometry" />
        </mxCell>
        <mxCell id="U8pGkThp6kLcEfoQ19Tg-51" value="S3" style="text;html=1;align=center;verticalAlign=middle;whiteSpace=wrap;rounded=0;" vertex="1" parent="U8pGkThp6kLcEfoQ19Tg-15">
          <mxGeometry x="411.75" y="123" width="60" height="30" as="geometry" />
        </mxCell>
        <mxCell id="U8pGkThp6kLcEfoQ19Tg-52" value="KMS" style="text;html=1;align=center;verticalAlign=middle;whiteSpace=wrap;rounded=0;" vertex="1" parent="U8pGkThp6kLcEfoQ19Tg-15">
          <mxGeometry x="180" y="204" width="60" height="30" as="geometry" />
        </mxCell>
        <mxCell id="U8pGkThp6kLcEfoQ19Tg-59" value="Application" style="fillColor=none;strokeColor=#5A6C86;dashed=1;verticalAlign=top;fontStyle=0;fontColor=#5A6C86;whiteSpace=wrap;html=1;" vertex="1" parent="U8pGkThp6kLcEfoQ19Tg-15">
          <mxGeometry x="-20" y="-40" width="570" height="570" as="geometry" />
        </mxCell>
        <mxCell id="U8pGkThp6kLcEfoQ19Tg-20" value="" style="edgeStyle=orthogonalEdgeStyle;rounded=0;orthogonalLoop=1;jettySize=auto;html=1;" edge="1" parent="1" source="U8pGkThp6kLcEfoQ19Tg-4" target="U8pGkThp6kLcEfoQ19Tg-12">
          <mxGeometry relative="1" as="geometry">
            <mxPoint x="203" y="357" as="sourcePoint" />
            <mxPoint x="320" y="318" as="targetPoint" />
          </mxGeometry>
        </mxCell>
        <mxCell id="U8pGkThp6kLcEfoQ19Tg-12" value="" style="fillColor=#28A8E0;verticalLabelPosition=bottom;sketch=0;html=1;strokeColor=#ffffff;verticalAlign=top;align=center;points=[[0.145,0.145,0],[0.5,0,0],[0.855,0.145,0],[1,0.5,0],[0.855,0.855,0],[0.5,1,0],[0.145,0.855,0],[0,0.5,0]];pointerEvents=1;shape=mxgraph.cisco_safe.compositeIcon;bgIcon=ellipse;resIcon=mxgraph.cisco_safe.capability.virtual_private_network;" vertex="1" parent="1">
          <mxGeometry x="250" y="376.5" width="40" height="41" as="geometry" />
        </mxCell>
        <mxCell id="U8pGkThp6kLcEfoQ19Tg-23" style="edgeStyle=orthogonalEdgeStyle;rounded=0;orthogonalLoop=1;jettySize=auto;html=1;entryX=0;entryY=0.5;entryDx=0;entryDy=0;entryPerimeter=0;" edge="1" parent="1" source="U8pGkThp6kLcEfoQ19Tg-28" target="U8pGkThp6kLcEfoQ19Tg-22">
          <mxGeometry relative="1" as="geometry" />
        </mxCell>
        <mxCell id="U8pGkThp6kLcEfoQ19Tg-29" value="" style="edgeStyle=orthogonalEdgeStyle;rounded=0;orthogonalLoop=1;jettySize=auto;html=1;entryX=0;entryY=0.5;entryDx=0;entryDy=0;entryPerimeter=0;" edge="1" parent="1" source="U8pGkThp6kLcEfoQ19Tg-5" target="U8pGkThp6kLcEfoQ19Tg-28">
          <mxGeometry relative="1" as="geometry">
            <mxPoint x="360" y="263" as="sourcePoint" />
            <mxPoint x="774" y="263" as="targetPoint" />
          </mxGeometry>
        </mxCell>
        <mxCell id="U8pGkThp6kLcEfoQ19Tg-28" value="" style="sketch=0;points=[[0,0,0],[0.25,0,0],[0.5,0,0],[0.75,0,0],[1,0,0],[0,1,0],[0.25,1,0],[0.5,1,0],[0.75,1,0],[1,1,0],[0,0.25,0],[0,0.5,0],[0,0.75,0],[1,0.25,0],[1,0.5,0],[1,0.75,0]];outlineConnect=0;fontColor=#232F3E;fillColor=#DD344C;strokeColor=#ffffff;dashed=0;verticalLabelPosition=bottom;verticalAlign=top;align=center;html=1;fontSize=12;fontStyle=0;aspect=fixed;shape=mxgraph.aws4.resourceIcon;resIcon=mxgraph.aws4.key_management_service;" vertex="1" parent="1">
          <mxGeometry x="556" y="240" width="48" height="48" as="geometry" />
        </mxCell>
        <mxCell id="U8pGkThp6kLcEfoQ19Tg-32" value="" style="edgeStyle=orthogonalEdgeStyle;rounded=0;orthogonalLoop=1;jettySize=auto;html=1;" edge="1" parent="1" source="U8pGkThp6kLcEfoQ19Tg-27">
          <mxGeometry relative="1" as="geometry">
            <mxPoint x="720" y="406" as="targetPoint" />
          </mxGeometry>
        </mxCell>
        <mxCell id="U8pGkThp6kLcEfoQ19Tg-27" value="AWS&#xa;CloudTrail" style="sketch=0;outlineConnect=0;fontColor=#232F3E;gradientColor=none;strokeColor=#ffffff;fillColor=#232F3E;dashed=0;verticalLabelPosition=middle;verticalAlign=bottom;align=center;html=1;whiteSpace=wrap;fontSize=10;fontStyle=1;spacing=3;shape=mxgraph.aws4.productIcon;prIcon=mxgraph.aws4.cloudtrail;" vertex="1" parent="1">
          <mxGeometry x="585" y="351" width="80" height="110" as="geometry" />
        </mxCell>
        <mxCell id="U8pGkThp6kLcEfoQ19Tg-25" value="AWS Config" style="sketch=0;outlineConnect=0;fontColor=#232F3E;gradientColor=none;strokeColor=#ffffff;fillColor=#232F3E;dashed=0;verticalLabelPosition=middle;verticalAlign=bottom;align=center;html=1;whiteSpace=wrap;fontSize=10;fontStyle=1;spacing=3;shape=mxgraph.aws4.productIcon;prIcon=mxgraph.aws4.config;" vertex="1" parent="1">
          <mxGeometry x="960" y="80" width="80" height="100" as="geometry" />
        </mxCell>
        <mxCell id="U8pGkThp6kLcEfoQ19Tg-34" value="" style="edgeStyle=orthogonalEdgeStyle;rounded=0;orthogonalLoop=1;jettySize=auto;html=1;" edge="1" parent="1" target="U8pGkThp6kLcEfoQ19Tg-33">
          <mxGeometry relative="1" as="geometry">
            <mxPoint x="759" y="445" as="sourcePoint" />
          </mxGeometry>
        </mxCell>
        <mxCell id="U8pGkThp6kLcEfoQ19Tg-36" value="" style="edgeStyle=orthogonalEdgeStyle;rounded=0;orthogonalLoop=1;jettySize=auto;html=1;" edge="1" parent="1" source="U8pGkThp6kLcEfoQ19Tg-33" target="U8pGkThp6kLcEfoQ19Tg-35">
          <mxGeometry relative="1" as="geometry" />
        </mxCell>
        <mxCell id="U8pGkThp6kLcEfoQ19Tg-33" value="" style="outlineConnect=0;dashed=0;verticalLabelPosition=bottom;verticalAlign=top;align=center;html=1;shape=mxgraph.aws3.lambda_function;fillColor=#F58534;gradientColor=none;" vertex="1" parent="1">
          <mxGeometry x="724.5" y="491" width="69" height="72" as="geometry" />
        </mxCell>
        <mxCell id="U8pGkThp6kLcEfoQ19Tg-39" value="" style="edgeStyle=orthogonalEdgeStyle;rounded=0;orthogonalLoop=1;jettySize=auto;html=1;" edge="1" parent="1" source="U8pGkThp6kLcEfoQ19Tg-35" target="U8pGkThp6kLcEfoQ19Tg-38">
          <mxGeometry relative="1" as="geometry" />
        </mxCell>
        <mxCell id="U8pGkThp6kLcEfoQ19Tg-35" value="Amazon SNS" style="sketch=0;outlineConnect=0;fontColor=#232F3E;gradientColor=none;strokeColor=#ffffff;fillColor=#232F3E;dashed=0;verticalLabelPosition=middle;verticalAlign=bottom;align=center;html=1;whiteSpace=wrap;fontSize=10;fontStyle=1;spacing=3;shape=mxgraph.aws4.productIcon;prIcon=mxgraph.aws4.sns;" vertex="1" parent="1">
          <mxGeometry x="585" y="477" width="80" height="100" as="geometry" />
        </mxCell>
        <mxCell id="U8pGkThp6kLcEfoQ19Tg-37" value="Pipeline (3)" style="text;html=1;align=center;verticalAlign=middle;whiteSpace=wrap;rounded=0;" vertex="1" parent="1">
          <mxGeometry x="664" y="371" width="60" height="30" as="geometry" />
        </mxCell>
        <mxCell id="U8pGkThp6kLcEfoQ19Tg-38" value="" style="image;html=1;image=img/lib/clip_art/networking/Email_128x128.png" vertex="1" parent="1">
          <mxGeometry x="430" y="487" width="80" height="80" as="geometry" />
        </mxCell>
        <mxCell id="U8pGkThp6kLcEfoQ19Tg-40" value="Amazon CloudWatch" style="sketch=0;outlineConnect=0;fontColor=#232F3E;gradientColor=none;strokeColor=#ffffff;fillColor=#232F3E;dashed=0;verticalLabelPosition=middle;verticalAlign=bottom;align=center;html=1;whiteSpace=wrap;fontSize=10;fontStyle=1;spacing=3;shape=mxgraph.aws4.productIcon;prIcon=mxgraph.aws4.cloudwatch;" vertex="1" parent="1">
          <mxGeometry x="719" y="337.5" width="80" height="110" as="geometry" />
        </mxCell>
        <mxCell id="U8pGkThp6kLcEfoQ19Tg-41" value="" style="outlineConnect=0;dashed=0;verticalLabelPosition=bottom;verticalAlign=top;align=center;html=1;shape=mxgraph.aws3.iam;fillColor=#759C3E;gradientColor=none;" vertex="1" parent="1">
          <mxGeometry x="980" y="209" width="42" height="81" as="geometry" />
        </mxCell>
        <mxCell id="U8pGkThp6kLcEfoQ19Tg-43" value="Client" style="text;html=1;align=center;verticalAlign=middle;whiteSpace=wrap;rounded=0;" vertex="1" parent="1">
          <mxGeometry x="66" y="193" width="60" height="30" as="geometry" />
        </mxCell>
        <mxCell id="U8pGkThp6kLcEfoQ19Tg-45" value="VPN" style="text;html=1;align=center;verticalAlign=middle;whiteSpace=wrap;rounded=0;" vertex="1" parent="1">
          <mxGeometry x="240" y="417.5" width="60" height="30" as="geometry" />
        </mxCell>
        <mxCell id="U8pGkThp6kLcEfoQ19Tg-46" value="User Internal" style="text;html=1;align=center;verticalAlign=middle;whiteSpace=wrap;rounded=0;" vertex="1" parent="1">
          <mxGeometry x="72" y="436" width="60" height="30" as="geometry" />
        </mxCell>
        <mxCell id="U8pGkThp6kLcEfoQ19Tg-47" value="Email" style="text;html=1;align=center;verticalAlign=middle;whiteSpace=wrap;rounded=0;" vertex="1" parent="1">
          <mxGeometry x="440" y="562" width="60" height="30" as="geometry" />
        </mxCell>
        <mxCell id="U8pGkThp6kLcEfoQ19Tg-48" value="Lambda" style="text;html=1;align=center;verticalAlign=middle;whiteSpace=wrap;rounded=0;" vertex="1" parent="1">
          <mxGeometry x="733.5" y="562" width="60" height="30" as="geometry" />
        </mxCell>
        <mxCell id="U8pGkThp6kLcEfoQ19Tg-54" value="IAM" style="text;html=1;align=center;verticalAlign=middle;whiteSpace=wrap;rounded=0;" vertex="1" parent="1">
          <mxGeometry x="970" y="190" width="60" height="30" as="geometry" />
        </mxCell>
        <mxCell id="U8pGkThp6kLcEfoQ19Tg-56" value="" style="group" vertex="1" connectable="0" parent="1">
          <mxGeometry x="962" y="318" width="78" height="105" as="geometry" />
        </mxCell>
        <mxCell id="U8pGkThp6kLcEfoQ19Tg-42" value="" style="sketch=0;outlineConnect=0;fontColor=#232F3E;gradientColor=none;fillColor=#DD344C;strokeColor=none;dashed=0;verticalLabelPosition=bottom;verticalAlign=top;align=center;html=1;fontSize=12;fontStyle=0;aspect=fixed;pointerEvents=1;shape=mxgraph.aws4.access_analyzer;" vertex="1" parent="U8pGkThp6kLcEfoQ19Tg-56">
          <mxGeometry y="28" width="78" height="77" as="geometry" />
        </mxCell>
        <mxCell id="U8pGkThp6kLcEfoQ19Tg-55" value="IAM Access Analyzer" style="text;html=1;align=center;verticalAlign=middle;whiteSpace=wrap;rounded=0;" vertex="1" parent="U8pGkThp6kLcEfoQ19Tg-56">
          <mxGeometry x="9" width="60" height="30" as="geometry" />
        </mxCell>
        <mxCell id="U8pGkThp6kLcEfoQ19Tg-58" value="Source" style="fillColor=none;strokeColor=#5A6C86;dashed=1;verticalAlign=top;fontStyle=0;fontColor=#5A6C86;whiteSpace=wrap;html=1;" vertex="1" parent="1">
          <mxGeometry x="37" y="30" width="123" height="580" as="geometry" />
        </mxCell>
        <mxCell id="U8pGkThp6kLcEfoQ19Tg-60" value="Monitoring &amp;amp; Security" style="fillColor=none;strokeColor=#5A6C86;dashed=1;verticalAlign=top;fontStyle=0;fontColor=#5A6C86;whiteSpace=wrap;html=1;" vertex="1" parent="1">
          <mxGeometry x="938.5" y="29" width="123" height="580" as="geometry" />
        </mxCell>
        <mxCell id="U8pGkThp6kLcEfoQ19Tg-61" value="AWS Shield" style="sketch=0;outlineConnect=0;fontColor=#232F3E;gradientColor=none;strokeColor=#ffffff;fillColor=#232F3E;dashed=0;verticalLabelPosition=middle;verticalAlign=bottom;align=center;html=1;whiteSpace=wrap;fontSize=10;fontStyle=1;spacing=3;shape=mxgraph.aws4.productIcon;prIcon=mxgraph.aws4.shield;" vertex="1" parent="1">
          <mxGeometry x="962" y="460" width="80" height="100" as="geometry" />
        </mxCell>
      </root>
    </mxGraphModel>
  </diagram>
</mxfile>
